<?xml version="1.0" standalone="no"?>
<!DOCTYPE svg PUBLIC "-//W3C//DTD SVG 20010904//EN"
 "http://www.w3.org/TR/2001/REC-SVG-20010904/DTD/svg10.dtd">
<svg version="1.0" xmlns="http://www.w3.org/2000/svg"
 width="700.000000pt" height="700.000000pt" viewBox="0 0 700.000000 700.000000"
 preserveAspectRatio="xMidYMid meet">
<metadata>
Created by potrace 1.14, written by Peter Selinger 2001-2017
</metadata>
<g transform="translate(0.000000,700.000000) scale(0.100000,-0.100000)"
fill="#000000" stroke="none">
<path d="M3537 6324 c-1 -1 -60 -5 -132 -8 -71 -3 -148 -8 -170 -11 -22 -3
-60 -7 -85 -10 -41 -5 -79 -11 -135 -21 -11 -2 -36 -7 -55 -10 -19 -3 -62 -13
-95 -21 -33 -8 -71 -17 -85 -19 -54 -10 -281 -89 -385 -135 -294 -131 -500
-288 -717 -546 -40 -48 -89 -108 -108 -133 -19 -25 -38 -49 -43 -55 -49 -61
-196 -289 -264 -410 -88 -158 -242 -512 -258 -594 -2 -9 -10 -38 -19 -66 -9
-27 -27 -99 -41 -159 -30 -133 -23 -159 51 -202 95 -56 186 -40 249 42 32 42
40 63 75 214 29 125 95 291 186 470 74 145 115 221 124 230 3 3 12 17 20 33
24 44 123 202 130 207 3 3 17 23 30 44 107 176 339 396 550 520 125 74 379
183 467 201 10 2 54 12 98 23 112 28 219 46 365 59 152 14 619 6 648 -11 4 -2
30 -6 59 -10 28 -3 57 -8 65 -11 7 -2 27 -7 43 -10 17 -3 35 -7 40 -9 6 -1 30
-8 55 -15 207 -57 444 -174 625 -310 290 -217 551 -525 709 -838 16 -32 16
-32 -17 -55 -43 -30 -52 -39 -76 -79 -43 -70 -19 -123 97 -222 62 -52 228
-174 279 -203 161 -95 202 -112 214 -92 8 12 4 323 -5 438 -10 127 -18 215
-22 234 -2 12 -6 35 -9 51 -11 58 -26 75 -62 75 -19 0 -52 -9 -74 -20 -46 -24
-52 -22 -69 22 -15 40 -84 180 -112 228 -33 55 -147 225 -166 246 -9 10 -41
49 -70 85 -30 37 -97 108 -150 159 -322 309 -737 537 -1177 645 -69 18 -89 22
-142 30 -16 2 -41 6 -58 9 -62 11 -369 28 -378 20z"/>
<path d="M5183 3923 c-5 -1 -38 -4 -74 -8 -60 -6 -65 -8 -64 -28 2 -18 8 -22
35 -22 29 0 34 -4 35 -25 3 -38 17 -200 21 -240 2 -19 6 -88 10 -152 l6 -117
-26 -12 c-15 -7 -26 -20 -26 -32 0 -18 5 -19 83 -13 45 4 98 9 117 11 19 2 71
6 115 10 44 3 89 8 100 10 11 2 28 4 38 4 15 1 17 8 13 49 -3 26 -6 71 -7 100
-2 43 -6 52 -21 52 -10 0 -18 -1 -19 -2 0 -2 -3 -23 -5 -48 -10 -89 -46 -114
-177 -125 l-88 -7 2 39 c1 21 -2 67 -5 103 -4 36 -9 83 -11 105 -2 22 -7 83
-11 135 -3 52 -8 98 -10 101 -8 14 19 69 37 74 10 4 19 15 19 25 0 17 -6 19
-40 17 -22 -1 -43 -3 -47 -4z"/>
<path d="M4671 3868 c-5 -18 -40 -143 -76 -278 -80 -296 -84 -309 -112 -328
-13 -8 -23 -23 -23 -33 0 -16 6 -18 63 -13 34 3 71 7 82 9 11 2 24 4 28 4 5 1
7 11 5 24 -3 19 -8 21 -37 19 -25 -3 -32 0 -29 10 3 7 11 39 18 71 15 64 24
72 89 76 25 2 66 6 93 10 55 9 65 2 91 -67 23 -57 21 -71 -8 -78 -26 -6 -36
-43 -12 -45 14 -1 81 2 117 6 14 2 42 3 62 4 34 1 38 4 36 26 -2 21 -7 25 -35
25 -25 0 -33 4 -34 18 0 32 -273 567 -291 570 -11 2 -19 -8 -27 -30z m80 -251
c31 -67 55 -123 54 -125 -1 -1 -22 -5 -46 -7 -24 -2 -66 -7 -93 -11 -47 -6
-49 -5 -42 18 3 12 18 74 33 135 16 62 30 113 33 113 3 0 30 -55 61 -123z"/>
<path d="M4248 3841 c-31 -3 -58 -8 -60 -11 -2 -3 -35 -108 -73 -235 -37 -126
-73 -245 -79 -262 l-11 -33 -46 88 c-25 48 -81 155 -124 237 -43 83 -82 155
-87 161 -5 7 -30 10 -66 7 -102 -8 -100 -7 -93 -51 0 -4 16 -6 34 -4 32 4 32
3 33 -40 1 -40 6 -134 20 -375 5 -98 -2 -127 -35 -138 -12 -3 -19 -14 -18 -26
1 -18 6 -19 87 -13 47 4 88 8 93 11 4 2 7 14 7 27 0 19 -4 21 -35 18 -34 -4
-35 -3 -36 29 -1 19 -2 45 -4 59 -1 14 -5 77 -9 140 -4 63 -9 142 -12 175 l-5
60 44 -90 c46 -95 202 -382 219 -402 17 -21 47 -10 57 22 23 73 65 210 66 215
4 29 81 270 86 270 3 0 9 -19 13 -42 3 -24 10 -72 16 -108 34 -229 35 -258 15
-280 -10 -11 -24 -20 -31 -20 -7 0 -11 -8 -10 -17 3 -15 13 -18 57 -17 44 2
103 6 162 13 4 1 7 12 7 26 0 23 -3 24 -37 19 -37 -5 -38 -4 -39 28 -1 31 -10
104 -19 158 -3 14 -7 48 -11 75 -3 28 -8 57 -9 65 -2 9 -6 43 -10 75 -4 33 -9
72 -11 86 -4 25 26 69 46 69 6 0 10 9 10 20 0 22 -1 22 -102 11z"/>
<path d="M3257 3754 c-1 -1 -42 -5 -92 -8 -121 -9 -155 -13 -160 -18 -2 -2 -2
-14 1 -25 5 -18 11 -21 35 -16 21 4 29 1 30 -8 1 -8 2 -25 4 -39 1 -14 6 -63
10 -110 4 -46 9 -96 10 -110 2 -14 7 -77 11 -141 6 -101 4 -117 -10 -132 -10
-9 -23 -17 -31 -17 -8 0 -11 -7 -8 -21 5 -19 11 -20 82 -14 43 3 86 8 97 10
10 2 27 4 36 4 13 1 17 8 14 24 -3 19 -9 22 -39 20 -28 -2 -36 1 -35 15 1 9
-2 61 -6 115 l-7 97 29 0 c31 0 50 -19 149 -150 79 -104 94 -112 198 -96 33 5
25 38 -11 48 -23 6 -49 29 -89 80 -32 40 -73 89 -92 109 l-35 36 26 7 c36 9
96 64 112 103 38 89 -4 188 -91 221 -26 10 -131 22 -138 16z m63 -58 c46 -17
72 -62 73 -127 0 -59 -22 -96 -74 -121 -37 -18 -117 -30 -124 -18 -6 9 -18
156 -18 209 1 31 6 49 19 58 22 16 77 16 124 -1z"/>
<path d="M2523 3696 c-164 -52 -252 -243 -198 -431 30 -102 116 -191 209 -216
56 -16 184 -5 237 19 81 36 154 129 174 222 11 48 8 145 -5 186 -34 101 -114
190 -197 218 -55 19 -162 20 -220 2z m163 -46 c11 -5 35 -20 52 -35 133 -112
143 -395 16 -491 -33 -26 -46 -29 -109 -29 -65 0 -74 3 -113 33 -103 82 -147
281 -92 411 46 105 142 149 246 111z"/>
<path d="M2078 3652 c-44 -3 -48 -5 -48 -29 0 -23 3 -25 30 -21 17 3 33 2 35
-2 2 -3 6 -44 10 -90 3 -47 8 -98 10 -115 2 -16 7 -73 11 -125 3 -52 9 -99 11
-105 6 -12 -62 58 -127 130 -25 28 -88 98 -142 155 -53 58 -109 120 -125 139
-27 30 -34 33 -69 27 -21 -3 -49 -5 -61 -6 -15 0 -20 -5 -18 -17 2 -10 4 -22
4 -27 1 -5 15 -6 31 -2 17 3 30 2 31 -2 3 -21 7 -67 13 -147 4 -49 9 -101 11
-115 6 -41 18 -203 18 -233 -1 -31 -19 -57 -39 -57 -8 0 -14 -10 -14 -24 0
-18 5 -23 18 -20 17 4 97 11 140 13 17 1 22 7 22 27 0 24 -3 26 -30 22 -17 -3
-32 -2 -34 1 -2 3 -7 48 -10 99 -4 51 -9 101 -11 110 -3 19 -16 143 -19 191
-1 17 0 31 3 30 3 0 29 -26 56 -58 28 -31 86 -97 131 -146 45 -50 114 -127
155 -173 65 -73 77 -83 104 -80 16 2 29 8 28 14 -1 6 -4 44 -7 85 -6 80 -15
177 -21 249 -18 185 -18 236 -1 253 10 9 23 17 31 17 8 0 11 7 8 20 -5 17 -12
20 -47 18 -22 -2 -62 -4 -88 -6z"/>
<path d="M5994 3419 c-38 -11 -89 -67 -113 -123 -23 -54 -49 -166 -56 -241
-23 -260 -189 -690 -420 -1090 -104 -180 -142 -230 -285 -375 -130 -132 -172
-165 -365 -288 -41 -26 -243 -122 -257 -122 -8 0 -18 -4 -23 -9 -20 -18 -301
-102 -395 -117 -14 -2 -36 -7 -50 -10 -14 -3 -38 -8 -53 -10 -15 -2 -45 -6
-67 -9 -233 -35 -535 -39 -750 -10 -8 1 -28 5 -45 8 -16 4 -44 9 -61 12 -47 7
-200 53 -279 82 -66 24 -184 80 -285 135 -44 23 -210 132 -234 153 -6 6 -34
28 -61 50 -93 74 -268 250 -347 350 -44 55 -86 109 -95 119 -27 33 -113 168
-113 177 0 5 18 26 41 46 51 46 69 81 69 134 0 39 -5 46 -102 143 -110 108
-339 287 -425 330 -48 24 -53 25 -61 8 -11 -22 -16 -140 -16 -437 0 -232 4
-312 18 -347 13 -29 60 -41 143 -34 l78 6 35 -67 c19 -38 61 -108 94 -158 337
-515 891 -883 1551 -1029 69 -15 92 -19 176 -33 59 -10 468 -10 544 0 154 20
151 19 280 41 76 14 185 39 320 75 276 75 600 240 815 415 327 266 683 827
858 1351 27 82 55 176 53 182 0 2 6 21 14 44 8 22 14 43 13 47 -1 4 4 25 10
47 26 92 51 282 47 355 -5 95 -47 165 -117 195 -42 17 -41 17 -84 4z"/>
</g>
</svg>
