<svg xmlns="http://www.w3.org/2000/svg" viewBox="0 0 1859.53 651.97"><defs><style>.cls-1{stroke:#000;stroke-miterlimit:10;stroke-width:4px;}</style></defs><g id="Laag_1" data-name="Laag 1"><path d="M330.36,442.18,177.24,236.49q-3.45-4.61-6.71-9c-2.18-2.93-4.41-5.94-6.72-9h-.38l1.15,164.24v19.18q0,9.6-.77,18.81l13.82-.77,13.81-.77V436H121.22V423.37q11.9,0,17.07-5.18A24.19,24.19,0,0,0,145,405.91a61.53,61.53,0,0,0,1.54-12.85l.38-184.58V182.77q-6.15.38-12.66.76l-13.05.77V167.42h45.66L310.79,360.06q5,6.53,9.78,13t9.79,13h.38l.39-175.75q0-7.68.38-14.78t.77-12.85l-13.82.76-13.81.77V167.42h70.61v12.66q-14.2.39-19.57,6.53t-5.76,16.5q-.39,10.35-.39,24.17l-.76,214.9Z"/><path d="M712.19,436V423.37q14.56-.76,19.95-6.71t6-16.5q.57-10.55.57-24V210.4q0-7.68.39-14.78t.76-12.85l-13.81.76-13.81.77V167.42l43.55-.77q22.07-.37,44.32.38,37.22.39,60.06,8.64t33.57,23.41q10.74,15.16,10.75,36.64a79.4,79.4,0,0,1-5.56,30.51q-6,15.54-21.49,27.82t-44.71,18.42a53.48,53.48,0,0,1,13.43,13.82q5.76,8.44,13,19.57l26.09,41.06q6.53,10.36,12.67,18.61a48.64,48.64,0,0,0,14.2,13.05q8.05,4.8,20,4.79V436H883.72a138.62,138.62,0,0,1-18.61-20q-7.49-10-15.55-22.64l-25.71-41.06q-5-8.06-11.32-18.61a77.65,77.65,0,0,0-14.39-17.84q-6.14.38-12.85.38t-13.24-.38v74.44q0,10.36-.19,17.85a104,104,0,0,1-1,12.47c3.07-.25,6.14-.45,9.21-.58s6.14-.31,9.21-.57,6.14-.39,9.21-.39V436Zm83.65-134.31q21.1-.76,37-6.91A52.53,52.53,0,0,0,858,275.25q9.21-13.42,9.21-35.3,0-14.58-4-25.52a43.61,43.61,0,0,0-12.47-18.23q-8.44-7.29-21.49-10.94t-30.7-3.64q-14.21,0-19.77,5.75t-6.14,15.93q-.57,10.17-.57,24V301l11.7.77A93.65,93.65,0,0,0,795.84,301.73Z"/><path d="M1097.84,439.88q-16.89-38.37-34.15-76.56T1029.92,286q-5.37-12.27-10.55-24.75t-10-25.13q-4.8-12.66-9.78-25.33,0,4.23-.2,8.44c-.13,2.82-.19,5.63-.19,8.45q-.39,13.8-1,33.19t-1.34,41.44q-.78,22.08-1.15,44.13T995,388.07q-.39,8.44-.58,16.89t-.95,15.73l14.39-.77,14.39-.77V436H949V423.37q11.89-.37,17.46-5.18a21.7,21.7,0,0,0,7.1-12.85,119.81,119.81,0,0,0,1.92-17.27l7.29-175q.38-7.67.58-15.35t.57-15c-4.6.25-9.21.45-13.81.57s-9.21.33-13.82.58v-16.5H1015l66,152.34q5,11.52,9.78,23t10,23q5.19,11.52,10.17,23.41h.77q4.21-10.37,10-24.75t9.59-24.75q16.88-42.21,35.11-84.62t35.88-87.68H1259v12.66q-9.59-.37-15.73,3.65T1234.46,197q-2.7,9.21-1.92,24.94l10,174.6a109.07,109.07,0,0,1,.77,12.67V420.3c4.61-.25,9.27-.44,14-.57s9.4-.32,14-.58V436h-86V423.37q11.88-.37,17.65-5.75t7.1-15.35a135.88,135.88,0,0,0,.57-24.56L1203,251.07q-.39-6.12-.77-12.28t-.77-12.28q-.37-6.12-.76-12.28-1.15,2.7-2.5,5.76c-.9,2-1.72,4.22-2.49,6.52l-86.34,213.37Z"/><path d="M1282,436V423.37q11.52,0,17.65-6.14t10.17-16.88q4-10.74,9.41-24.94l79-215.28h9.21l85.57,218.35q3.06,8.06,6.91,20.72t3.07,21.49l13-.77,13.05-.77V436h-87.88V423.37q14.58-.37,19.19-6.52a19.09,19.09,0,0,0,3.46-14.58,67.48,67.48,0,0,0-3.84-15.35l-13.43-36.07-99.78,2.3-13.43,41.06q-2.68,9.21-4.79,14.58t-4.8,11.9l15.16-.77q7.48-.37,14.77-.77V436Zm70.61-99.39h88.64l-27.24-73.3q-4.23-11.88-8.64-23.6t-8.63-23.6H1396q-3.84,10.75-7.86,21.49t-8.25,21.88Z"/><path d="M1545.67,436V423.37q14.58-.76,19.95-6.71t6-16.5q.59-10.55.58-24V210.4q0-7.68.38-14.78t.77-12.85l-13.82.76-13.81.77V167.42H1632v12.66q-14.21.39-19.76,6.53t-6.14,16.5q-.57,10.35-.58,24.17V391.91q0,10.35-.19,17.65a100.62,100.62,0,0,1-1,12.28l71.76-1.15q24.18-.37,36.65-15.35t12.47-48.74h13L1736,436Z"/><path d="M1370.63,477.36a15.5,15.5,0,0,1,5.88,1.09,13.36,13.36,0,0,1,4.7,3.2,14.71,14.71,0,0,1,3.1,5.17,20.59,20.59,0,0,1,1.12,7,1.9,1.9,0,0,1-.25,1.13.93.93,0,0,1-.77.3h-27.18V496a25.39,25.39,0,0,0,1,7.46,15.21,15.21,0,0,0,2.8,5.39,11.62,11.62,0,0,0,4.39,3.28,14.52,14.52,0,0,0,5.75,1.09,17.48,17.48,0,0,0,4.92-.62,18.43,18.43,0,0,0,3.5-1.4,19.62,19.62,0,0,0,2.25-1.4,2.57,2.57,0,0,1,1.21-.63.88.88,0,0,1,.76.38l1,1.21a9.88,9.88,0,0,1-2.4,2.12,17.32,17.32,0,0,1-3.33,1.69,24.14,24.14,0,0,1-3.94,1.11,21.42,21.42,0,0,1-4.22.42,18,18,0,0,1-7-1.34,15.13,15.13,0,0,1-5.46-3.92,18,18,0,0,1-3.52-6.3,26.94,26.94,0,0,1-1.24-8.54,23.22,23.22,0,0,1,1.15-7.47,17.12,17.12,0,0,1,3.33-5.9,15,15,0,0,1,5.34-3.88A17.41,17.41,0,0,1,1370.63,477.36Zm.06,2.68a14.28,14.28,0,0,0-5.22.91,11.61,11.61,0,0,0-4,2.61,13.53,13.53,0,0,0-2.72,4.09,18.84,18.84,0,0,0-1.38,5.34h24.79a16.38,16.38,0,0,0-.83-5.43,11.45,11.45,0,0,0-2.34-4.07,10.28,10.28,0,0,0-3.63-2.56A12,12,0,0,0,1370.69,480Z"/><path d="M1419.9,483c-.13.12-.24.23-.36.32a.73.73,0,0,1-.47.13,2,2,0,0,1-1-.51,14.88,14.88,0,0,0-1.76-1.12,15,15,0,0,0-2.75-1.11,13.53,13.53,0,0,0-4-.51,13.7,13.7,0,0,0-5.77,1.15,11.45,11.45,0,0,0-4.24,3.31,15.26,15.26,0,0,0-2.63,5.22,26.82,26.82,0,0,0,0,13.93,15.17,15.17,0,0,0,2.63,5.17,11.18,11.18,0,0,0,4.13,3.19,12.7,12.7,0,0,0,5.37,1.1,13.87,13.87,0,0,0,4.56-.64,15.44,15.44,0,0,0,3-1.4,14.5,14.5,0,0,0,1.89-1.4,2,2,0,0,1,1.12-.65.86.86,0,0,1,.75.38l1,1.21a10.61,10.61,0,0,1-2.2,2.12,14.67,14.67,0,0,1-3,1.71,18.57,18.57,0,0,1-3.61,1.11,20,20,0,0,1-4.07.4,16.16,16.16,0,0,1-6.57-1.31,14.17,14.17,0,0,1-5.1-3.78,17.53,17.53,0,0,1-3.33-6.08,28.08,28.08,0,0,1-.06-16,17.73,17.73,0,0,1,3.31-6.13,14.71,14.71,0,0,1,5.34-4,17.42,17.42,0,0,1,7.24-1.42,17.09,17.09,0,0,1,6.53,1.17,16,16,0,0,1,5,3.18Z"/><path d="M1443.89,477.36a18.13,18.13,0,0,1,7.25,1.38,14.75,14.75,0,0,1,5.39,3.92,17.19,17.19,0,0,1,3.35,6.11,28.13,28.13,0,0,1,0,16,17.28,17.28,0,0,1-3.35,6.09,14.59,14.59,0,0,1-5.39,3.9,20,20,0,0,1-14.49,0,14.78,14.78,0,0,1-5.42-3.9,17.29,17.29,0,0,1-3.36-6.09,28.13,28.13,0,0,1,0-16,17.21,17.21,0,0,1,3.36-6.11,14.94,14.94,0,0,1,5.42-3.92A18.08,18.08,0,0,1,1443.89,477.36Zm0,35.91a14,14,0,0,0,5.89-1.15,11.18,11.18,0,0,0,4.2-3.31,14.79,14.79,0,0,0,2.52-5.21,28.43,28.43,0,0,0,0-13.64,14.94,14.94,0,0,0-2.52-5.24,11.18,11.18,0,0,0-4.2-3.35,15.39,15.39,0,0,0-11.77,0,11.18,11.18,0,0,0-4.2,3.35,15.15,15.15,0,0,0-2.54,5.24,27.79,27.79,0,0,0,0,13.64,15,15,0,0,0,2.54,5.21,11.18,11.18,0,0,0,4.2,3.31A14,14,0,0,0,1443.89,513.27Z"/><path d="M1509.13,515.62a1.31,1.31,0,0,1-1.4-1.06l-.53-4.81a39.48,39.48,0,0,1-3.08,2.73,19.19,19.19,0,0,1-3.2,2,16.07,16.07,0,0,1-3.59,1.27,19.33,19.33,0,0,1-4.24.43,12.44,12.44,0,0,1-3.75-.57,8.93,8.93,0,0,1-3.21-1.74,8.49,8.49,0,0,1-2.26-3,10.58,10.58,0,0,1-.85-4.41,7.89,7.89,0,0,1,1.36-4.43,11.25,11.25,0,0,1,4.26-3.56,28.27,28.27,0,0,1,7.46-2.42,64.24,64.24,0,0,1,11-1.06v-3.94q0-5.22-2.25-8t-6.68-2.82a12.68,12.68,0,0,0-4.63.76,16.26,16.26,0,0,0-3.24,1.67,21.24,21.24,0,0,0-2.16,1.66,2.3,2.3,0,0,1-1.4.76,1.22,1.22,0,0,1-1.13-.68l-.65-1.1a21.92,21.92,0,0,1,6.21-4.47,17.29,17.29,0,0,1,7.38-1.51,13.55,13.55,0,0,1,5.3,1,9.82,9.82,0,0,1,3.76,2.77,12.15,12.15,0,0,1,2.26,4.35,20.15,20.15,0,0,1,.75,5.69v24.53Zm-15.13-2a16.44,16.44,0,0,0,4-.47,14.94,14.94,0,0,0,3.4-1.33,16.32,16.32,0,0,0,2.94-2c.9-.78,1.8-1.63,2.68-2.54v-9.8a65.61,65.61,0,0,0-9.25.82,27,27,0,0,0-6.4,1.79,9.37,9.37,0,0,0-3.7,2.71,5.75,5.75,0,0,0-1.2,3.58,7.82,7.82,0,0,0,.63,3.27,6.42,6.42,0,0,0,1.64,2.27,6.63,6.63,0,0,0,2.39,1.31A9.9,9.9,0,0,0,1494,513.61Z"/><path d="M1542.66,482.66a.86.86,0,0,1-.83.52,2,2,0,0,1-1.08-.47,17.71,17.71,0,0,0-1.74-1.06,14.43,14.43,0,0,0-2.65-1.06,13.65,13.65,0,0,0-3.84-.47,11.36,11.36,0,0,0-3.73.58,9.5,9.5,0,0,0-2.87,1.57,7.19,7.19,0,0,0-1.86,2.28,6,6,0,0,0-.66,2.74,4.65,4.65,0,0,0,.91,2.95,7.7,7.7,0,0,0,2.38,2,17.78,17.78,0,0,0,3.35,1.44c1.25.4,2.53.81,3.84,1.21s2.6.85,3.84,1.34a14.36,14.36,0,0,1,3.35,1.84,8.64,8.64,0,0,1,2.39,2.68,7.73,7.73,0,0,1,.91,3.86,11.76,11.76,0,0,1-.89,4.58,10.32,10.32,0,0,1-2.58,3.67,12.11,12.11,0,0,1-4.14,2.46,16,16,0,0,1-5.6.91,16.82,16.82,0,0,1-6.85-1.27,19,19,0,0,1-5.15-3.31l.87-1.28a1.58,1.58,0,0,1,.42-.46,1.14,1.14,0,0,1,.64-.15,2,2,0,0,1,1.21.61,15,15,0,0,0,1.88,1.3,15.57,15.57,0,0,0,2.87,1.31,13.09,13.09,0,0,0,4.26.6,12.26,12.26,0,0,0,4.2-.66,8.71,8.71,0,0,0,3-1.8,7.29,7.29,0,0,0,1.83-2.66,8.46,8.46,0,0,0,.63-3.24,5.17,5.17,0,0,0-.91-3.14,7.9,7.9,0,0,0-2.38-2.12,17.19,17.19,0,0,0-3.35-1.48l-3.86-1.21c-1.33-.4-2.61-.84-3.86-1.32a14,14,0,0,1-3.35-1.82,8.71,8.71,0,0,1-2.39-2.67,7.75,7.75,0,0,1-.9-3.91,8.81,8.81,0,0,1,.87-3.86,9.86,9.86,0,0,1,2.47-3.26,12.25,12.25,0,0,1,3.92-2.23,15.11,15.11,0,0,1,5.19-.83,17.52,17.52,0,0,1,6.11,1,15,15,0,0,1,4.9,3.06Z"/><path d="M1571.73,478V502q0,5.3,2.43,8.31c1.62,2,4.08,3,7.4,3a13.3,13.3,0,0,0,6.87-1.88,20,20,0,0,0,5.74-5.2V478h3.59v37.66h-2q-1,0-1.08-1l-.35-5.6a21.21,21.21,0,0,1-6,5.22,15,15,0,0,1-7.64,2,14.27,14.27,0,0,1-5.49-1,10,10,0,0,1-3.9-2.84,12.46,12.46,0,0,1-2.35-4.47,20.19,20.19,0,0,1-.8-5.9V478Z"/><path d="M1630.76,482.66a.87.87,0,0,1-.83.52,2,2,0,0,1-1.08-.47,17.71,17.71,0,0,0-1.74-1.06,14.43,14.43,0,0,0-2.65-1.06,13.7,13.7,0,0,0-3.84-.47,11.31,11.31,0,0,0-3.73.58,9.5,9.5,0,0,0-2.87,1.57,7.19,7.19,0,0,0-1.86,2.28,6,6,0,0,0-.66,2.74,4.65,4.65,0,0,0,.91,2.95,7.7,7.7,0,0,0,2.38,2,17.78,17.78,0,0,0,3.35,1.44c1.25.4,2.53.81,3.84,1.21s2.59.85,3.84,1.34a14.36,14.36,0,0,1,3.35,1.84,8.64,8.64,0,0,1,2.39,2.68,7.73,7.73,0,0,1,.9,3.86,11.58,11.58,0,0,1-.89,4.58,10.29,10.29,0,0,1-2.57,3.67,12.11,12.11,0,0,1-4.14,2.46,16,16,0,0,1-5.6.91,16.79,16.79,0,0,1-6.85-1.27,18.84,18.84,0,0,1-5.15-3.31l.87-1.28a1.58,1.58,0,0,1,.42-.46,1.14,1.14,0,0,1,.64-.15,2,2,0,0,1,1.21.61,14.77,14.77,0,0,0,1.87,1.3,15.69,15.69,0,0,0,2.88,1.31,13.09,13.09,0,0,0,4.26.6,12.26,12.26,0,0,0,4.2-.66,8.71,8.71,0,0,0,3-1.8,7.41,7.41,0,0,0,1.83-2.66,8.46,8.46,0,0,0,.63-3.24,5.23,5.23,0,0,0-.91-3.14,7.82,7.82,0,0,0-2.39-2.12,16.92,16.92,0,0,0-3.35-1.48c-1.24-.4-2.53-.8-3.86-1.21s-2.61-.84-3.86-1.32a14.08,14.08,0,0,1-3.34-1.82,8.71,8.71,0,0,1-2.39-2.67,7.75,7.75,0,0,1-.91-3.91,9,9,0,0,1,.87-3.86,9.89,9.89,0,0,1,2.48-3.26,12.14,12.14,0,0,1,3.92-2.23,15.09,15.09,0,0,1,5.18-.83,17.54,17.54,0,0,1,6.12,1,15.13,15.13,0,0,1,4.9,3.06Z"/><path d="M1645.22,478V502q0,5.3,2.43,8.31c1.62,2,4.09,3,7.4,3a13.3,13.3,0,0,0,6.87-1.88,20,20,0,0,0,5.74-5.2V478h3.59v37.66h-2q-1.05,0-1.08-1l-.34-5.6a21.38,21.38,0,0,1-6,5.22,15,15,0,0,1-7.63,2,14.29,14.29,0,0,1-5.5-1,10,10,0,0,1-3.9-2.84,12.46,12.46,0,0,1-2.35-4.47,20.19,20.19,0,0,1-.8-5.9V478Z"/><path d="M1707.54,515.62a1.31,1.31,0,0,1-1.4-1.06l-.53-4.81a39.48,39.48,0,0,1-3.08,2.73,19.19,19.19,0,0,1-3.2,2,16.07,16.07,0,0,1-3.59,1.27,19.33,19.33,0,0,1-4.24.43,12.44,12.44,0,0,1-3.75-.57,8.93,8.93,0,0,1-3.21-1.74,8.49,8.49,0,0,1-2.26-3,10.58,10.58,0,0,1-.85-4.41,7.89,7.89,0,0,1,1.36-4.43,11.25,11.25,0,0,1,4.26-3.56,28.27,28.27,0,0,1,7.46-2.42,64.24,64.24,0,0,1,11-1.06v-3.94q0-5.22-2.25-8t-6.68-2.82a12.68,12.68,0,0,0-4.63.76,16.26,16.26,0,0,0-3.24,1.67,21.24,21.24,0,0,0-2.16,1.66,2.3,2.3,0,0,1-1.4.76,1.22,1.22,0,0,1-1.13-.68l-.65-1.1a21.92,21.92,0,0,1,6.21-4.47,17.29,17.29,0,0,1,7.38-1.51,13.55,13.55,0,0,1,5.3,1,9.82,9.82,0,0,1,3.76,2.77,12.15,12.15,0,0,1,2.26,4.35,20.15,20.15,0,0,1,.75,5.69v24.53Zm-15.13-2a16.44,16.44,0,0,0,4-.47,14.94,14.94,0,0,0,3.4-1.33,16.32,16.32,0,0,0,2.94-2c.9-.78,1.8-1.63,2.68-2.54v-9.8a65.61,65.61,0,0,0-9.25.82,27,27,0,0,0-6.4,1.79,9.37,9.37,0,0,0-3.7,2.71,5.75,5.75,0,0,0-1.2,3.58,7.82,7.82,0,0,0,.63,3.27,6.54,6.54,0,0,0,1.64,2.27,6.63,6.63,0,0,0,2.39,1.31A9.9,9.9,0,0,0,1692.41,513.61Z"/><path d="M1725,460.55v55.07h-3.6V460.55Z"/></g><g id="Laag_3" data-name="Laag 3"><path class="cls-1" d="M409.67,274.38s4.89-39.56,42.11-79.67c33.89-36.53,93.48-33.73,105.55-32.2,28.11,3.56,76,23.56,95.62,71.23,0,0,6-4.26,8.22-1.48s3.53,35.47,2.79,38.26-28.79-15.6-30.27-21,6.41-9.31,6.41-9.31S614.37,183,552.86,178.83c-60.36-4.05-85,22.75-92.37,30.53s-29.33,41.5-32.33,61.25C425,287.19,408.72,279.24,409.67,274.38Z"/><path class="cls-1" d="M671.94,316.71s-1.92,39.82-36,82.59c-31.08,38.95-90.71,40.6-102.86,40-28.3-1.45-77.59-17.83-100.67-63.91,0,0-8.08,2.09-10.51-.52s-1.05-36.34-.52-39.17,27.18,17.25,29.07,22.51-5.7,9.76-5.7,9.76,29.92,55.18,91.57,54.72c60.49-.46,83.06-29,89.84-37.33s26.16-43.57,27.67-63.49C656.25,293.35,674.42,303.42,671.94,316.71Z"/></g></svg>